# xmcd CD database file
#
# Track frame offsets:
#	150
#	6937
#	21184
#	35223
#	55783
#	69031
#	83391
#	95874
#	114022
#	125341
#	136576
#	151098
#	165059
#	181049
#	198501
#	214832
#	228586
#	243632
#	257879
#	269106
#
# Disc length: 3677 seconds
#
# Revision: 0
# Processed by: cddbd v1.5.2PL0 Copyright (c) Steve Scherf et al.
# Submitted via: CDex 1.70beta2
#
DISCID=030e5b14
DTITLE=Count Basie - Legendary Broadcasts CD2
DYEAR=2008
DGENRE=Jazz
TTITLE0=Melancholy Lullaby
TTITLE1=Rose Room
TTITLE2=I Can't get started
TTITLE3=Night and Day
TTITLE4=One o'clock Jump
TTITLE5=Sleep
TTITLE6=I used to Love you
TTITLE7=I'll wind
TTITLE8=Fish Fry
TTITLE9=Swanee River
TTITLE10=All of me
TTITLE11=Honeysuckle Rose
TTITLE12=Midnight
TTITLE13=Black Bay Boogie
TTITLE14=Opening Night
TTITLE15=Love's Dream
TTITLE16=My Heart has Wings
TTITLE17=Oh, lady be Good
TTITLE18=Big Wig in the Wigwam
TTITLE19=Melancholy Lullaby
EXTD=YEAR: 2008
EXTT0=
EXTT1=
EXTT2=
EXTT3=
EXTT4=
EXTT5=
EXTT6=
EXTT7=
EXTT8=
EXTT9=
EXTT10=
EXTT11=
EXTT12=
EXTT13=
EXTT14=
EXTT15=
EXTT16=
EXTT17=
EXTT18=
EXTT19=
PLAYORDER=
